<svg id="Layer_1" data-name="Layer 1" xmlns="http://www.w3.org/2000/svg" viewBox="0 0 851.28 744.58"><defs><style>.cls-1,.cls-6{fill:#7447ff;}.cls-2,.cls-7{fill:#74baff;}.cls-3{fill:#f4b200;}.cls-3,.cls-4,.cls-8{opacity:0.7;}.cls-4,.cls-5,.cls-8,.cls-9{fill:#fff515;}.cls-11,.cls-5,.cls-9{opacity:0.8;}.cls-10,.cls-6,.cls-7,.cls-8,.cls-9{stroke:blue;stroke-miterlimit:10;stroke-width:0.4px;}.cls-10{fill:#ffa635;}.cls-11{fill:#f44b00;}.cls-12{font-size:40px;font-family:ArialMT, Arial;}</style></defs><path class="cls-1" d="M321.17,195a4.9,4.9,0,0,1,1.16.26c6.84,2.38,72.21,27,29.05,83.31C305.87,337.9,248.5,417.6,211,432.29s-78.42,2.61-69.27-32,68.81-105,81.48-117.49S293.05,192.71,321.17,195Z" transform="translate(-56.76 -127.81)"/><path class="cls-2" d="M213.8,271.18a30.82,30.82,0,0,0,18.29-33.3c-6.45-40.48-2.24-110.91,105.85-109,151.47,2.7-16.15,35-16.15,35h0a16.17,16.17,0,0,0,19.09,15.91c43.89-8.05,138-23.7-.55,17.66a9.54,9.54,0,0,0-3.53,16.35c37.13,32,3.37,56.19-18.54,67.28a87.36,87.36,0,0,0-28,22.59c-35.14,42.84-131,151.57-132.69,64.18C163.26,304.52,192.06,280.38,213.8,271.18Z" transform="translate(-56.76 -127.81)"/><path class="cls-2" d="M391.75,267.59,345,299a36.28,36.28,0,0,0-15.81,26l-4.7,40.79a7.57,7.57,0,0,0,12.8,6.3l59.54-57.71a150.52,150.52,0,0,0,37.84-60h0a14.88,14.88,0,0,0-5.83-17.13l-20.15-13.51a4.15,4.15,0,0,0-4.49-.08h0a29.45,29.45,0,0,0-12.22,35.15l1.41,3.88A4.14,4.14,0,0,1,391.75,267.59Z" transform="translate(-56.76 -127.81)"/><path class="cls-2" d="M285.88,340s-21.64,11.26-44.43,46.23c-.52.8-1,1.59-1.49,2.36-9.3,15.16,9.93,32,21.8,19.06,16.66-18.14,38.61-44.51,37.59-56.63C297.72,331.58,285.88,340,285.88,340Z" transform="translate(-56.76 -127.81)"/><path class="cls-2" d="M194.54,217.53S158.37,227,114.19,268c-1,.94-2,1.87-2.9,2.78-18.28,18,6.8,45.74,28.42,31.49,30.34-20,71-49.71,72.59-66.31C214.92,209.35,194.54,217.53,194.54,217.53Z" transform="translate(-56.76 -127.81)"/><path class="cls-3" d="M441,689.89c38.25,25.5-52.93,165.56-65.32,130.64S410.62,669.62,441,689.89Z" transform="translate(-56.76 -127.81)"/><path class="cls-1" d="M776.2,193.93a4.89,4.89,0,0,1,1.16.25c6.84,2.39,72.22,27,29,83.32C760.91,336.86,703.53,416.56,666,431.25s-78.42,2.61-69.27-32,68.81-105,81.49-117.49S748.08,191.66,776.2,193.93Z" transform="translate(-56.76 -127.81)"/><path class="cls-2" d="M668.83,270.14a30.83,30.83,0,0,0,18.3-33.3c-6.46-40.49-2.25-110.91,105.85-109,151.46,2.69-16.16,35-16.16,35h0a16.18,16.18,0,0,0,19.09,15.91c43.89-8.05,138-23.7-.54,17.66a9.54,9.54,0,0,0-3.54,16.35c37.13,32,3.38,56.19-18.53,67.28a87.16,87.16,0,0,0-28,22.59c-35.14,42.84-131,151.57-132.68,64.18C618.29,303.48,647.09,279.33,668.83,270.14Z" transform="translate(-56.76 -127.81)"/><path class="cls-2" d="M846.78,266.55,800,298a36.32,36.32,0,0,0-15.82,26l-4.7,40.79a7.57,7.57,0,0,0,12.8,6.31l59.54-57.72a150.3,150.3,0,0,0,37.84-60h0a14.89,14.89,0,0,0-5.82-17.13l-20.15-13.51a4.17,4.17,0,0,0-4.5-.08h0A29.46,29.46,0,0,0,847,257.81l1.41,3.87A4.15,4.15,0,0,1,846.78,266.55Z" transform="translate(-56.76 -127.81)"/><path class="cls-4" d="M814.94,219.12s93.48-63.07,49.56,16.9S754.13,402.7,754.13,357.65,814.94,219.12,814.94,219.12Z" transform="translate(-56.76 -127.81)"/><path class="cls-2" d="M740.92,339s-21.64,11.26-44.43,46.23c-.53.8-1,1.59-1.49,2.35-9.31,15.17,9.92,32,21.79,19.07,16.66-18.14,38.61-44.52,37.59-56.63C752.76,330.53,740.92,339,740.92,339Z" transform="translate(-56.76 -127.81)"/><path class="cls-2" d="M649.57,216.49S613.4,225.9,569.23,267c-1,.94-2,1.87-2.91,2.78-18.28,17.95,6.81,45.74,28.42,31.49,30.34-20,71-49.71,72.6-66.31C670,208.3,649.57,216.49,649.57,216.49Z" transform="translate(-56.76 -127.81)"/><path class="cls-5" d="M700.63,159.43a266.81,266.81,0,0,1-42.91,38.71c-29.75,21.42-77.05,62.15-89.89,112-19.15,74.33,49.55,49.56,49.55,49.56s84.47-50.68,82.22-98C697.58,219.24,742.79,112.26,700.63,159.43Z" transform="translate(-56.76 -127.81)"/><path class="cls-6" d="M325.71,628.73a4.81,4.81,0,0,1,1.15.26c6.84,2.38,72.22,27,29.06,83.31C310.41,771.66,253,851.36,215.51,866.05s-78.41,2.61-69.27-32,68.82-105,81.49-117.49S297.59,626.47,325.71,628.73Z" transform="translate(-56.76 -127.81)"/><path class="cls-7" d="M218.34,704.94a30.82,30.82,0,0,0,18.29-33.3c-6.45-40.48-2.25-110.91,105.85-109,151.46,2.7-16.16,35-16.16,35h0a16.18,16.18,0,0,0,19.1,15.91c43.89-8.05,138-23.7-.55,17.66a9.54,9.54,0,0,0-3.53,16.35c37.12,32,3.37,56.19-18.54,67.28a87.4,87.4,0,0,0-28.05,22.59c-35.13,42.84-131,151.57-132.68,64.18C167.79,738.28,196.59,714.14,218.34,704.94Z" transform="translate(-56.76 -127.81)"/><path class="cls-7" d="M396.29,701.35l-46.8,31.44a36.32,36.32,0,0,0-15.82,26L329,799.56a7.58,7.58,0,0,0,12.81,6.31l59.53-57.72a150.3,150.3,0,0,0,37.84-60h0a14.88,14.88,0,0,0-5.82-17.13l-20.15-13.51a4.17,4.17,0,0,0-4.49-.08h0a29.47,29.47,0,0,0-12.23,35.15l1.42,3.88A4.15,4.15,0,0,1,396.29,701.35Z" transform="translate(-56.76 -127.81)"/><path class="cls-8" d="M364.45,653.92s93.47-63.06,49.55,16.9S303.63,837.5,303.63,792.45,364.45,653.92,364.45,653.92Z" transform="translate(-56.76 -127.81)"/><path class="cls-7" d="M290.42,773.75S268.78,785,246,820c-.52.8-1,1.59-1.49,2.36-9.31,15.16,9.93,32,21.8,19.06,16.66-18.14,38.6-44.51,37.59-56.63C302.26,765.34,290.42,773.75,290.42,773.75Z" transform="translate(-56.76 -127.81)"/><path class="cls-7" d="M199.08,651.29s-36.17,9.42-80.35,50.47c-1,.94-2,1.87-2.91,2.78-18.27,18,6.81,45.74,28.43,31.49,30.34-20,71-49.71,72.59-66.31C219.46,643.11,199.08,651.29,199.08,651.29Z" transform="translate(-56.76 -127.81)"/><path class="cls-9" d="M250.13,594.23a265.85,265.85,0,0,1-42.9,38.71c-29.76,21.42-77,62.16-89.9,112-19.14,74.34,49.56,49.56,49.56,49.56s84.47-50.68,82.21-98C247.08,654.05,292.29,547.07,250.13,594.23Z" transform="translate(-56.76 -127.81)"/><path class="cls-10" d="M631.37,724.8" transform="translate(-56.76 -127.81)"/><path class="cls-3" d="M285.61,551.36c9.07-1.86,91,2.12,100.24,2.25,29.63.42,8.46-27,24.39-16.74,30.91,19.9,26.75,66.4-7,81-100.19,43.24-160.62,67.27-194,157.54-40.42,109.16-33.18-42-5.21-77.74s-119.09-22-49.51,52.44c50.85,54.38-7.45,62.7-42.5,63.24a72.3,72.3,0,0,1-52.8-21.23C47.11,779.8,83.87,775,89.47,752.26c7.33-29.67,22.69-56.79,46.07-76.47C198.18,623.07,205.13,567.91,285.61,551.36Z" transform="translate(-56.76 -127.81)"/><path class="cls-3" d="M898.73,679.84c38.25,25.5-52.94,165.56-65.32,130.65S868.32,659.57,898.73,679.84Z" transform="translate(-56.76 -127.81)"/><path class="cls-6" d="M783.4,618.69a4.44,4.44,0,0,1,1.16.25c6.84,2.38,72.22,27,29.05,83.31C768.11,761.61,710.73,841.31,673.21,856s-78.42,2.61-69.27-32,68.81-105,81.49-117.48S755.28,616.42,783.4,618.69Z" transform="translate(-56.76 -127.81)"/><path class="cls-7" d="M676,694.9a30.84,30.84,0,0,0,18.3-33.31c-6.46-40.48-2.25-110.91,105.85-109,151.46,2.69-16.16,35-16.16,35h0a16.17,16.17,0,0,0,19.09,15.91c43.89-8,138-23.69-.54,17.66A9.54,9.54,0,0,0,799,637.53c37.12,32,3.37,56.19-18.54,67.28a87.29,87.29,0,0,0-28,22.59c-35.14,42.84-131,151.58-132.68,64.18C625.49,728.23,654.29,704.09,676,694.9Z" transform="translate(-56.76 -127.81)"/><path class="cls-7" d="M854,691.31l-46.8,31.44a36.29,36.29,0,0,0-15.82,26l-4.7,40.79a7.58,7.58,0,0,0,12.8,6.31L859,738.1a150.44,150.44,0,0,0,37.84-60h0A14.9,14.9,0,0,0,891,661l-20.15-13.5a4.17,4.17,0,0,0-4.5-.09h0a29.46,29.46,0,0,0-12.22,35.15l1.41,3.88A4.15,4.15,0,0,1,854,691.31Z" transform="translate(-56.76 -127.81)"/><path class="cls-8" d="M822.14,643.88s93.48-63.07,49.56,16.89S761.33,827.45,761.33,782.4,822.14,643.88,822.14,643.88Z" transform="translate(-56.76 -127.81)"/><path class="cls-7" d="M748.12,763.7S726.48,775,703.69,809.93c-.52.8-1,1.59-1.49,2.36-9.31,15.16,9.92,32,21.79,19.06,16.67-18.14,38.61-44.51,37.6-56.63C760,755.29,748.12,763.7,748.12,763.7Z" transform="translate(-56.76 -127.81)"/><path class="cls-7" d="M656.77,641.24s-36.17,9.42-80.34,50.48c-1,.94-2,1.86-2.91,2.77-18.28,18,6.81,45.74,28.42,31.49,30.34-20,71-49.71,72.6-66.31C677.16,633.06,656.77,641.24,656.77,641.24Z" transform="translate(-56.76 -127.81)"/><path class="cls-9" d="M707.83,584.19a266.32,266.32,0,0,1-42.91,38.7c-29.75,21.42-77,62.16-89.89,112-19.15,74.33,49.55,49.55,49.55,49.55s84.47-50.68,82.22-98C704.78,644,750,537,707.83,584.19Z" transform="translate(-56.76 -127.81)"/><path class="cls-3" d="M743.31,541.31c9.07-1.86,91,2.13,100.23,2.26,29.63.41,8.47-27,24.39-16.75,30.92,19.9,26.75,66.41-7,81-100.18,43.25-160.62,67.27-194,157.54-40.42,109.16-33.18-42-5.22-77.74s-119.08-22-49.51,52.44c50.86,54.38-7.45,62.7-42.5,63.24A72.29,72.29,0,0,1,516.87,782c-12.07-12.29,24.69-17.13,30.3-39.83,7.33-29.67,22.69-56.78,46.07-76.46C655.88,613,662.83,557.86,743.31,541.31Z" transform="translate(-56.76 -127.81)"/><path class="cls-11" d="M564.19,718c-11.53,25.5-7,47.51-17.48,42.77s-9.64-29.26,1.88-54.76,29.38-42.34,39.86-37.6S575.71,692.51,564.19,718Z" transform="translate(-56.76 -127.81)"/><path class="cls-11" d="M602.07,733.84c-11.53,25.51-7,47.52-17.48,42.78s-9.64-29.26,1.89-54.77,29.37-42.34,39.85-37.6S613.59,708.34,602.07,733.84Z" transform="translate(-56.76 -127.81)"/><path class="cls-11" d="M665.61,642.53C652,659.29,651,676.61,644.1,671s-1.4-23.74,12.25-40.5,30.29-25.79,37.18-20.18S679.26,625.78,665.61,642.53Z" transform="translate(-56.76 -127.81)"/><path class="cls-11" d="M638.29,627c-13.65,16.76-14.61,34.08-21.5,28.47S615.38,631.73,629,615s30.3-25.79,37.19-20.18S651.94,610.25,638.29,627Z" transform="translate(-56.76 -127.81)"/><path class="cls-11" d="M709.05,557.24c-13.58,6.17-19.13,17.4-22,11.1s5.84-16.4,19.42-22.56,26.9-6.07,29.76.23S722.63,551.07,709.05,557.24Z" transform="translate(-56.76 -127.81)"/><path class="cls-11" d="M726.18,577.39c-13.58,6.16-19.13,17.39-22,11.1s5.84-16.4,19.42-22.57,26.91-6.07,29.77.23S739.76,571.22,726.18,577.39Z" transform="translate(-56.76 -127.81)"/><text class="cls-12" transform="translate(129.7 221.03)">1.</text><text class="cls-12" transform="translate(591.94 221.03)">2.</text><text class="cls-12" transform="translate(129.7 634.76)">3.</text><text class="cls-12" transform="translate(591.94 634.76)">4.</text></svg>